<svg width="924" height="418" viewBox="0 0 924 418" fill="none" xmlns="http://www.w3.org/2000/svg">
<path d="M54.9258 97L51.6377 98.2076L48.3495 101.226L43.0884 99.4151V103.642L38.485 105.453L33.224 103.642V106.66L25.3324 105.453L22.0442 106.66L14.8103 105.453L13.495 110.283V113.906L9.54922 116.925L2.9729 120.547L4.94579 126.585L1 129.604L4.94579 133.83L9.54922 137.453L7.57632 142.887L16.7832 146.509L23.3595 149.528L27.3053 156.17L33.224 160.396L38.485 164.019H45.0613H51.6377L56.8987 170.057H62.8174H68.7361L72.6819 175.491L75.3124 179.113L79.2582 184.547V189.981L83.204 197.226L87.8074 204.472L93.7261 209.906L96.3566 215.34V221.377L93.7261 232.245L96.3566 240.094L86.4922 252.17L84.5193 260.623L87.8074 266.057L89.7803 273.906H93.7261L100.96 276.925L106.221 276.321L108.194 279.34H123.32L129.238 281.151H137.787L144.364 279.34L152.913 281.151L165.408 284.17L178.561 291.415L189.74 299.264L198.947 305.302L211.442 313.151L216.046 311.34H221.964L219.991 321.604H225.253L229.856 333.377L234.459 345.151V349.377L239.72 357.226L249.585 366.283V371.717H263.395L276.548 369.906L294.304 374.132L313.375 375.34L334.419 377.755H342.969L351.518 375.34H361.382L365.986 372.925L377.165 374.132L389.66 377.151L407.417 380.17L415.308 390.434L425.83 394.66L437.668 397.075L446.874 401.302L457.397 406.132L467.261 407.943H476.468L484.36 406.132V413.981H491.593L498.17 417L504.746 410.962L512.638 406.132L529.078 397.075L543.546 390.434L549.465 388.623L556.041 388.019L559.987 386.208L562.618 383.792L567.221 381.981L570.509 383.792H577.086L582.347 382.585L588.265 381.981H596.157L602.076 382.585H606.679L609.967 381.377H614.571H619.832L623.777 380.17L628.381 377.151L633.642 374.132H640.218L644.164 371.113L648.767 369.302L652.713 365.075L656.659 360.849L660.605 355.113L663.893 349.981L667.839 345.755L677.046 341.528L683.622 339.717L688.225 334.283L692.829 333.075L695.459 329.453L692.829 322.208L686.581 317.377L683.622 313.151L680.991 308.925L679.676 304.094L682.307 296.849L685.595 286.585L689.541 280.547L695.459 278.132H700.72H705.982L711.242 281.755L716.504 286.585L727.683 289L733.602 289.604L739.521 290.208L741.494 291.415H744.782L746.755 288.396L751.358 285.377L754.646 284.17L758.592 280.547L762.538 276.321L767.141 271.491V266.66L773.06 264.849L777.663 266.66H788.185L798.708 264.849L803.969 260.019L808.572 255.792L815.148 253.981L818.437 249.151V241.906L823.698 237.075L829.616 230.434L833.562 229.226H838.166H848.688L850.003 225V221.377L853.949 220.774L857.894 223.189H862.498L865.128 220.17H870.389L875.651 215.943H882.227H888.803L894.064 214.132L899.325 217.755L905.902 220.774L909.847 218.962L916.424 220.774L923 217.755V209.302L919.054 203.264V197.83L913.136 193.906L907.217 189.981V185.755L902.613 183.943L901.298 179.113L890.776 173.679L884.857 166.434L877.623 164.623L871.705 162.811L861.84 164.623L856.25 171.868L853.127 175.792L851.976 178.509L850.003 179.113L847.372 177.906L845.399 176.094L841.454 171.868L836.85 168.245L823.698 170.057L817.121 168.245L813.833 173.679L807.914 174.887L802.653 171.264L798.05 168.245V158.585L805.284 153.755L804.626 144.698L813.833 132.623L811.86 129L814.82 123.566L822.382 110.283L830.274 95.7925L831.589 89.7547L826.328 86.1321L818.437 84.3208L809.23 86.7358L804.626 90.3585L796.077 89.7547L788.843 86.1321L777.663 76.4717H767.799L761.88 75.2642L752.016 81.3019L744.782 84.9245L738.205 87.9434L729.656 93.3773L719.792 106.057L707.954 104.245L695.459 109.075L686.253 110.283L681.649 111.491L677.703 110.283L674.415 112.698L668.496 116.321L659.947 118.736L654.029 116.925L650.083 115.717L644.822 118.736L634.957 116.925L628.381 116.321L623.777 115.717L617.201 111.491H610.625L595.499 112.698L590.896 109.075L588.923 104.245L579.058 98.8113V92.7736V89.7547L576.428 87.3396L571.825 86.7358H566.563H561.302L553.411 84.9245L550.78 78.283L545.519 74.6604L538.943 72.8491L534.751 73.4528L531.709 74.6604L529.078 73.4528H524.475L523.16 69.8302H518.556H514.611L502.773 68.6226L496.854 71.0377L489.621 72.8491L483.044 74.6604L475.81 75.2642L471.207 80.0943L466.603 80.6981L462 79.4906L458.712 80.0943L455.424 81.3019L450.163 78.283H444.244L442.271 74.6604H435.037L427.803 71.0377H425.83L421.227 65.6038L415.966 61.9811V56.5472L413.335 54.1321L412.678 45.0755L410.705 36.0189L412.678 34.8113L413.335 34.2075L408.074 30.5849H404.128L402.155 28.7736H398.21L394.264 26.9623L393.606 28.7736H390.318L387.688 25.7547L382.427 24.5472L377.823 21.5283L373.22 20.3208L369.274 18.5094L364.67 17.9057H348.887L344.942 11.8679H339.023L336.392 9.45283H331.131L329.158 5.83019L324.555 5.22641L321.924 4.01887L319.952 1L316.663 3.41509V8.84906L312.06 14.8868L307.456 16.6981L303.511 18.5094L301.538 22.7358L300.223 24.5472L299.565 29.3774L293.646 30.5849L292.331 36.0189L289.7 40.2453V48.6981L293.646 52.9245V56.5472L298.25 64.3962H301.538L303.511 66.2075L301.538 71.0377L302.195 75.2642L292.331 87.3396L291.016 87.9434L289.7 90.3585L286.412 87.3396L281.809 88.5472L280.494 92.7736L276.548 95.1887L271.944 96.3962L266.026 93.3773L264.71 90.3585L256.819 89.7547L254.188 90.9623L251.558 88.5472C250.681 89.3522 248.796 90.9623 248.27 90.9623C247.744 90.9623 246.735 89.7547 246.297 89.1509L243.666 86.7358L241.036 86.1321H237.747L234.459 86.7358L233.802 84.9245H229.856V86.7358H227.225L224.595 87.3396L223.28 89.1509H221.964L219.991 86.7358L208.154 87.3396V84.3208H204.866L196.317 84.9245L195.001 82.5094L193.029 79.4906L192.371 77.0755L189.74 63.7925L185.137 61.9811L180.534 61.3774L177.903 62.5849L174.615 61.9811L171.327 63.1887L168.039 62.5849C167.079 62.7862 165.934 62.5849 165.408 62.5849C164.882 62.5849 162.777 62.5849 162.12 61.9811L158.174 62.5849L153.571 63.1887L150.282 61.9811L149.625 58.9623L151.598 56.5472L150.282 54.1321L146.994 53.5283L144.364 54.1321L141.733 57.1509H135.157L131.869 54.1321L131.211 52.3208L129.238 51.717L127.923 52.3208L125.95 57.1509H119.374L117.401 58.9623H112.797L110.167 61.3774V63.1887L108.194 63.7925L106.879 65L104.248 65.6038L102.933 66.8113H99.6448L98.3295 68.0189L96.3566 68.6226L93.0685 68.0189L89.7803 69.2264L89.1227 71.6415L86.4922 72.2453L85.1769 72.8491C85.1769 72.8491 84.5193 73.8553 84.5193 74.6604V76.4717L83.204 77.6792H81.2311H79.9158L77.2853 78.283L75.3124 79.4906H72.6819L70.709 81.3019L68.7361 83.1132H64.7903V87.9434H58.214H56.2411L54.9258 89.1509V93.3773L56.8987 95.1887L54.9258 97Z" stroke="#888888" stroke-opacity="0.5" stroke-width="0.966618"/>
</svg>
